<svg viewBox="0 0 40 40" xmlns="http://www.w3.org/2000/svg">
  <!-- Échiquier avec pièces en position de départ -->
  <!-- Cases -->
  <g id="board">
    <rect x="0" y="0" width="5" height="5" fill="white" stroke="black" stroke-width="0.5"/>
    <rect x="5" y="0" width="5" height="5" fill="black" stroke="black" stroke-width="0.5"/>
    <rect x="10" y="0" width="5" height="5" fill="white" stroke="black" stroke-width="0.5"/>
    <rect x="15" y="0" width="5" height="5" fill="black" stroke="black" stroke-width="0.5"/>
    <rect x="20" y="0" width="5" height="5" fill="white" stroke="black" stroke-width="0.5"/>
    <rect x="25" y="0" width="5" height="5" fill="black" stroke="black" stroke-width="0.5"/>
    <rect x="30" y="0" width="5" height="5" fill="white" stroke="black" stroke-width="0.5"/>
    <rect x="35" y="0" width="5" height="5" fill="black" stroke="black" stroke-width="0.5"/>
    
    <rect x="0" y="5" width="5" height="5" fill="black" stroke="black" stroke-width="0.5"/>
    <rect x="5" y="5" width="5" height="5" fill="white" stroke="black" stroke-width="0.5"/>
    <rect x="10" y="5" width="5" height="5" fill="black" stroke="black" stroke-width="0.5"/>
    <rect x="15" y="5" width="5" height="5" fill="white" stroke="black" stroke-width="0.5"/>
    <rect x="20" y="5" width="5" height="5" fill="black" stroke="black" stroke-width="0.5"/>
    <rect x="25" y="5" width="5" height="5" fill="white" stroke="black" stroke-width="0.5"/>
    <rect x="30" y="5" width="5" height="5" fill="black" stroke="black" stroke-width="0.5"/>
    <rect x="35" y="5" width="5" height="5" fill="white" stroke="black" stroke-width="0.5"/>
    
    <rect x="0" y="10" width="5" height="5" fill="white" stroke="black" stroke-width="0.5"/>
    <rect x="5" y="10" width="5" height="5" fill="black" stroke="black" stroke-width="0.5"/>
    <rect x="10" y="10" width="5" height="5" fill="white" stroke="black" stroke-width="0.5"/>
    <rect x="15" y="10" width="5" height="5" fill="black" stroke="black" stroke-width="0.5"/>
    <rect x="20" y="10" width="5" height="5" fill="white" stroke="black" stroke-width="0.5"/>
    <rect x="25" y="10" width="5" height="5" fill="black" stroke="black" stroke-width="0.5"/>
    <rect x="30" y="10" width="5" height="5" fill="white" stroke="black" stroke-width="0.5"/>
    <rect x="35" y="10" width="5" height="5" fill="black" stroke="black" stroke-width="0.5"/>
    
    <rect x="0" y="15" width="5" height="5" fill="black" stroke="black" stroke-width="0.5"/>
    <rect x="5" y="15" width="5" height="5" fill="white" stroke="black" stroke-width="0.5"/>
    <rect x="10" y="15" width="5" height="5" fill="black" stroke="black" stroke-width="0.5"/>
    <rect x="15" y="15" width="5" height="5" fill="white" stroke="black" stroke-width="0.5"/>
    <rect x="20" y="15" width="5" height="5" fill="black" stroke="black" stroke-width="0.5"/>
    <rect x="25" y="15" width="5" height="5" fill="white" stroke="black" stroke-width="0.5"/>
    <rect x="30" y="15" width="5" height="5" fill="black" stroke="black" stroke-width="0.5"/>
    <rect x="35" y="15" width="5" height="5" fill="white" stroke="black" stroke-width="0.5"/>
    
    <rect x="0" y="20" width="5" height="5" fill="white" stroke="black" stroke-width="0.5"/>
    <rect x="5" y="20" width="5" height="5" fill="black" stroke="black" stroke-width="0.5"/>
    <rect x="10" y="20" width="5" height="5" fill="white" stroke="black" stroke-width="0.5"/>
    <rect x="15" y="20" width="5" height="5" fill="black" stroke="black" stroke-width="0.5"/>
    <rect x="20" y="20" width="5" height="5" fill="white" stroke="black" stroke-width="0.5"/>
    <rect x="25" y="20" width="5" height="5" fill="black" stroke="black" stroke-width="0.5"/>
    <rect x="30" y="20" width="5" height="5" fill="white" stroke="black" stroke-width="0.5"/>
    <rect x="35" y="20" width="5" height="5" fill="black" stroke="black" stroke-width="0.5"/>
    
    <rect x="0" y="25" width="5" height="5" fill="black" stroke="black" stroke-width="0.5"/>
    <rect x="5" y="25" width="5" height="5" fill="white" stroke="black" stroke-width="0.5"/>
    <rect x="10" y="25" width="5" height="5" fill="black" stroke="black" stroke-width="0.5"/>
    <rect x="15" y="25" width="5" height="5" fill="white" stroke="black" stroke-width="0.5"/>
    <rect x="20" y="25" width="5" height="5" fill="black" stroke="black" stroke-width="0.5"/>
    <rect x="25" y="25" width="5" height="5" fill="white" stroke="black" stroke-width="0.5"/>
    <rect x="30" y="25" width="5" height="5" fill="black" stroke="black" stroke-width="0.5"/>
    <rect x="35" y="25" width="5" height="5" fill="white" stroke="black" stroke-width="0.5"/>
    
    <rect x="0" y="30" width="5" height="5" fill="white" stroke="black" stroke-width="0.5"/>
    <rect x="5" y="30" width="5" height="5" fill="black" stroke="black" stroke-width="0.5"/>
    <rect x="10" y="30" width="5" height="5" fill="white" stroke="black" stroke-width="0.5"/>
    <rect x="15" y="30" width="5" height="5" fill="black" stroke="black" stroke-width="0.5"/>
    <rect x="20" y="30" width="5" height="5" fill="white" stroke="black" stroke-width="0.5"/>
    <rect x="25" y="30" width="5" height="5" fill="black" stroke="black" stroke-width="0.5"/>
    <rect x="30" y="30" width="5" height="5" fill="white" stroke="black" stroke-width="0.5"/>
    <rect x="35" y="30" width="5" height="5" fill="black" stroke="black" stroke-width="0.5"/>
    
    <rect x="0" y="35" width="5" height="5" fill="black" stroke="black" stroke-width="0.5"/>
    <rect x="5" y="35" width="5" height="5" fill="white" stroke="black" stroke-width="0.5"/>
    <rect x="10" y="35" width="5" height="5" fill="black" stroke="black" stroke-width="0.5"/>
    <rect x="15" y="35" width="5" height="5" fill="white" stroke="black" stroke-width="0.5"/>
    <rect x="20" y="35" width="5" height="5" fill="black" stroke="black" stroke-width="0.5"/>
    <rect x="25" y="35" width="5" height="5" fill="white" stroke="black" stroke-width="0.5"/>
    <rect x="30" y="35" width="5" height="5" fill="black" stroke="black" stroke-width="0.5"/>
    <rect x="35" y="35" width="5" height="5" fill="white" stroke="black" stroke-width="0.5"/>
  </g>
  
  <!-- Pièces noires (en haut, rangée 8 et 7) -->
  <!-- Rangée 8: Tours, Cavaliers, Fous, Reine, Roi -->
  <!-- Tour noire a8 -->
  <g transform="translate(2.5, 2.5)">
    <circle cx="0" cy="0" r="1.8" fill="black" stroke="white" stroke-width="0.3"/>
  </g>
  <!-- Cavalier noir b8 -->
  <g transform="translate(7.5, 2.5)">
    <circle cx="0" cy="0" r="1.6" fill="black" stroke="white" stroke-width="0.3"/>
    <path d="M-0.5,-0.5 L0.5,0.5" stroke="white" stroke-width="0.3" fill="none"/>
  </g>
  <!-- Fou noir c8 -->
  <g transform="translate(12.5, 2.5)">
    <polygon points="0,-1.8 1.2,0.5 -1.2,0.5" fill="black" stroke="white" stroke-width="0.3"/>
  </g>
  <!-- Reine noire d8 -->
  <g transform="translate(17.5, 2.5)">
    <circle cx="0" cy="0" r="1.5" fill="black" stroke="white" stroke-width="0.3"/>
    <circle cx="0" cy="-1.5" r="0.6" fill="black" stroke="white" stroke-width="0.2"/>
  </g>
  <!-- Roi noir e8 -->
  <g transform="translate(22.5, 2.5)">
    <circle cx="0" cy="0" r="1.5" fill="black" stroke="white" stroke-width="0.3"/>
    <line x1="0" y1="-1.8" x2="0" y2="-0.8" stroke="white" stroke-width="0.3"/>
  </g>
  <!-- Fou noir f8 -->
  <g transform="translate(27.5, 2.5)">
    <polygon points="0,-1.8 1.2,0.5 -1.2,0.5" fill="black" stroke="white" stroke-width="0.3"/>
  </g>
  <!-- Cavalier noir g8 -->
  <g transform="translate(32.5, 2.5)">
    <circle cx="0" cy="0" r="1.6" fill="black" stroke="white" stroke-width="0.3"/>
    <path d="M-0.5,-0.5 L0.5,0.5" stroke="white" stroke-width="0.3" fill="none"/>
  </g>
  <!-- Tour noire h8 -->
  <g transform="translate(37.5, 2.5)">
    <circle cx="0" cy="0" r="1.8" fill="black" stroke="white" stroke-width="0.3"/>
  </g>
  
  <!-- Pions noirs rangée 7 -->
  <g transform="translate(2.5, 7.5)">
    <circle cx="0" cy="0" r="1.2" fill="black" stroke="white" stroke-width="0.2"/>
  </g>
  <g transform="translate(7.5, 7.5)">
    <circle cx="0" cy="0" r="1.2" fill="black" stroke="white" stroke-width="0.2"/>
  </g>
  <g transform="translate(12.5, 7.5)">
    <circle cx="0" cy="0" r="1.2" fill="black" stroke="white" stroke-width="0.2"/>
  </g>
  <g transform="translate(17.5, 7.5)">
    <circle cx="0" cy="0" r="1.2" fill="black" stroke="white" stroke-width="0.2"/>
  </g>
  <g transform="translate(22.5, 7.5)">
    <circle cx="0" cy="0" r="1.2" fill="black" stroke="white" stroke-width="0.2"/>
  </g>
  <g transform="translate(27.5, 7.5)">
    <circle cx="0" cy="0" r="1.2" fill="black" stroke="white" stroke-width="0.2"/>
  </g>
  <g transform="translate(32.5, 7.5)">
    <circle cx="0" cy="0" r="1.2" fill="black" stroke="white" stroke-width="0.2"/>
  </g>
  <g transform="translate(37.5, 7.5)">
    <circle cx="0" cy="0" r="1.2" fill="black" stroke="white" stroke-width="0.2"/>
  </g>
  
  <!-- Pions blancs rangée 2 -->
  <g transform="translate(2.5, 32.5)">
    <circle cx="0" cy="0" r="1.2" fill="white" stroke="black" stroke-width="0.2"/>
  </g>
  <g transform="translate(7.5, 32.5)">
    <circle cx="0" cy="0" r="1.2" fill="white" stroke="black" stroke-width="0.2"/>
  </g>
  <g transform="translate(12.5, 32.5)">
    <circle cx="0" cy="0" r="1.2" fill="white" stroke="black" stroke-width="0.2"/>
  </g>
  <g transform="translate(17.5, 32.5)">
    <circle cx="0" cy="0" r="1.2" fill="white" stroke="black" stroke-width="0.2"/>
  </g>
  <g transform="translate(22.5, 32.5)">
    <circle cx="0" cy="0" r="1.2" fill="white" stroke="black" stroke-width="0.2"/>
  </g>
  <g transform="translate(27.5, 32.5)">
    <circle cx="0" cy="0" r="1.2" fill="white" stroke="black" stroke-width="0.2"/>
  </g>
  <g transform="translate(32.5, 32.5)">
    <circle cx="0" cy="0" r="1.2" fill="white" stroke="black" stroke-width="0.2"/>
  </g>
  <g transform="translate(37.5, 32.5)">
    <circle cx="0" cy="0" r="1.2" fill="white" stroke="black" stroke-width="0.2"/>
  </g>
  
  <!-- Pièces blanches rangée 1 -->
  <!-- Tour blanche a1 -->
  <g transform="translate(2.5, 37.5)">
    <circle cx="0" cy="0" r="1.8" fill="white" stroke="black" stroke-width="0.3"/>
  </g>
  <!-- Cavalier blanc b1 -->
  <g transform="translate(7.5, 37.5)">
    <circle cx="0" cy="0" r="1.6" fill="white" stroke="black" stroke-width="0.3"/>
    <path d="M-0.5,-0.5 L0.5,0.5" stroke="black" stroke-width="0.3" fill="none"/>
  </g>
  <!-- Fou blanc c1 -->
  <g transform="translate(12.5, 37.5)">
    <polygon points="0,-1.8 1.2,0.5 -1.2,0.5" fill="white" stroke="black" stroke-width="0.3"/>
  </g>
  <!-- Reine blanche d1 -->
  <g transform="translate(17.5, 37.5)">
    <circle cx="0" cy="0" r="1.5" fill="white" stroke="black" stroke-width="0.3"/>
    <circle cx="0" cy="-1.5" r="0.6" fill="white" stroke="black" stroke-width="0.2"/>
  </g>
  <!-- Roi blanc e1 -->
  <g transform="translate(22.5, 37.5)">
    <circle cx="0" cy="0" r="1.5" fill="white" stroke="black" stroke-width="0.3"/>
    <line x1="0" y1="-1.8" x2="0" y2="-0.8" stroke="black" stroke-width="0.3"/>
  </g>
  <!-- Fou blanc f1 -->
  <g transform="translate(27.5, 37.5)">
    <polygon points="0,-1.8 1.2,0.5 -1.2,0.5" fill="white" stroke="black" stroke-width="0.3"/>
  </g>
  <!-- Cavalier blanc g1 -->
  <g transform="translate(32.5, 37.5)">
    <circle cx="0" cy="0" r="1.6" fill="white" stroke="black" stroke-width="0.3"/>
    <path d="M-0.5,-0.5 L0.5,0.5" stroke="black" stroke-width="0.3" fill="none"/>
  </g>
  <!-- Tour blanche h1 -->
  <g transform="translate(37.5, 37.5)">
    <circle cx="0" cy="0" r="1.8" fill="white" stroke="black" stroke-width="0.3"/>
  </g>
</svg>