<svg viewBox="0 0 40 40" xmlns="http://www.w3.org/2000/svg">
  <!-- Échiquier vide 8x8 avec cases de 5x5 pixels -->
  <g>
    <rect x="0" y="0" width="5" height="5" fill="white" stroke="black" stroke-width="0.5"/>
    <rect x="5" y="0" width="5" height="5" fill="black" stroke="black" stroke-width="0.5"/>
    <rect x="10" y="0" width="5" height="5" fill="white" stroke="black" stroke-width="0.5"/>
    <rect x="15" y="0" width="5" height="5" fill="black" stroke="black" stroke-width="0.5"/>
    <rect x="20" y="0" width="5" height="5" fill="white" stroke="black" stroke-width="0.5"/>
    <rect x="25" y="0" width="5" height="5" fill="black" stroke="black" stroke-width="0.5"/>
    <rect x="30" y="0" width="5" height="5" fill="white" stroke="black" stroke-width="0.5"/>
    <rect x="35" y="0" width="5" height="5" fill="black" stroke="black" stroke-width="0.5"/>
    
    <rect x="0" y="5" width="5" height="5" fill="black" stroke="black" stroke-width="0.5"/>
    <rect x="5" y="5" width="5" height="5" fill="white" stroke="black" stroke-width="0.5"/>
    <rect x="10" y="5" width="5" height="5" fill="black" stroke="black" stroke-width="0.5"/>
    <rect x="15" y="5" width="5" height="5" fill="white" stroke="black" stroke-width="0.5"/>
    <rect x="20" y="5" width="5" height="5" fill="black" stroke="black" stroke-width="0.5"/>
    <rect x="25" y="5" width="5" height="5" fill="white" stroke="black" stroke-width="0.5"/>
    <rect x="30" y="5" width="5" height="5" fill="black" stroke="black" stroke-width="0.5"/>
    <rect x="35" y="5" width="5" height="5" fill="white" stroke="black" stroke-width="0.5"/>
    
    <rect x="0" y="10" width="5" height="5" fill="white" stroke="black" stroke-width="0.5"/>
    <rect x="5" y="10" width="5" height="5" fill="black" stroke="black" stroke-width="0.5"/>
    <rect x="10" y="10" width="5" height="5" fill="white" stroke="black" stroke-width="0.5"/>
    <rect x="15" y="10" width="5" height="5" fill="black" stroke="black" stroke-width="0.5"/>
    <rect x="20" y="10" width="5" height="5" fill="white" stroke="black" stroke-width="0.5"/>
    <rect x="25" y="10" width="5" height="5" fill="black" stroke="black" stroke-width="0.5"/>
    <rect x="30" y="10" width="5" height="5" fill="white" stroke="black" stroke-width="0.5"/>
    <rect x="35" y="10" width="5" height="5" fill="black" stroke="black" stroke-width="0.5"/>
    
    <rect x="0" y="15" width="5" height="5" fill="black" stroke="black" stroke-width="0.5"/>
    <rect x="5" y="15" width="5" height="5" fill="white" stroke="black" stroke-width="0.5"/>
    <rect x="10" y="15" width="5" height="5" fill="black" stroke="black" stroke-width="0.5"/>
    <rect x="15" y="15" width="5" height="5" fill="white" stroke="black" stroke-width="0.5"/>
    <rect x="20" y="15" width="5" height="5" fill="black" stroke="black" stroke-width="0.5"/>
    <rect x="25" y="15" width="5" height="5" fill="white" stroke="black" stroke-width="0.5"/>
    <rect x="30" y="15" width="5" height="5" fill="black" stroke="black" stroke-width="0.5"/>
    <rect x="35" y="15" width="5" height="5" fill="white" stroke="black" stroke-width="0.5"/>
    
    <rect x="0" y="20" width="5" height="5" fill="white" stroke="black" stroke-width="0.5"/>
    <rect x="5" y="20" width="5" height="5" fill="black" stroke="black" stroke-width="0.5"/>
    <rect x="10" y="20" width="5" height="5" fill="white" stroke="black" stroke-width="0.5"/>
    <rect x="15" y="20" width="5" height="5" fill="black" stroke="black" stroke-width="0.5"/>
    <rect x="20" y="20" width="5" height="5" fill="white" stroke="black" stroke-width="0.5"/>
    <rect x="25" y="20" width="5" height="5" fill="black" stroke="black" stroke-width="0.5"/>
    <rect x="30" y="20" width="5" height="5" fill="white" stroke="black" stroke-width="0.5"/>
    <rect x="35" y="20" width="5" height="5" fill="black" stroke="black" stroke-width="0.5"/>
    
    <rect x="0" y="25" width="5" height="5" fill="black" stroke="black" stroke-width="0.5"/>
    <rect x="5" y="25" width="5" height="5" fill="white" stroke="black" stroke-width="0.5"/>
    <rect x="10" y="25" width="5" height="5" fill="black" stroke="black" stroke-width="0.5"/>
    <rect x="15" y="25" width="5" height="5" fill="white" stroke="black" stroke-width="0.5"/>
    <rect x="20" y="25" width="5" height="5" fill="black" stroke="black" stroke-width="0.5"/>
    <rect x="25" y="25" width="5" height="5" fill="white" stroke="black" stroke-width="0.5"/>
    <rect x="30" y="25" width="5" height="5" fill="black" stroke="black" stroke-width="0.5"/>
    <rect x="35" y="25" width="5" height="5" fill="white" stroke="black" stroke-width="0.5"/>
    
    <rect x="0" y="30" width="5" height="5" fill="white" stroke="black" stroke-width="0.5"/>
    <rect x="5" y="30" width="5" height="5" fill="black" stroke="black" stroke-width="0.5"/>
    <rect x="10" y="30" width="5" height="5" fill="white" stroke="black" stroke-width="0.5"/>
    <rect x="15" y="30" width="5" height="5" fill="black" stroke="black" stroke-width="0.5"/>
    <rect x="20" y="30" width="5" height="5" fill="white" stroke="black" stroke-width="0.5"/>
    <rect x="25" y="30" width="5" height="5" fill="black" stroke="black" stroke-width="0.5"/>
    <rect x="30" y="30" width="5" height="5" fill="white" stroke="black" stroke-width="0.5"/>
    <rect x="35" y="30" width="5" height="5" fill="black" stroke="black" stroke-width="0.5"/>
    
    <rect x="0" y="35" width="5" height="5" fill="black" stroke="black" stroke-width="0.5"/>
    <rect x="5" y="35" width="5" height="5" fill="white" stroke="black" stroke-width="0.5"/>
    <rect x="10" y="35" width="5" height="5" fill="black" stroke="black" stroke-width="0.5"/>
    <rect x="15" y="35" width="5" height="5" fill="white" stroke="black" stroke-width="0.5"/>
    <rect x="20" y="35" width="5" height="5" fill="black" stroke="black" stroke-width="0.5"/>
    <rect x="25" y="35" width="5" height="5" fill="white" stroke="black" stroke-width="0.5"/>
    <rect x="30" y="35" width="5" height="5" fill="black" stroke="black" stroke-width="0.5"/>
    <rect x="35" y="35" width="5" height="5" fill="white" stroke="black" stroke-width="0.5"/>
  </g>
</svg>